<svg xmlns="http://www.w3.org/2000/svg" width="110.831" height="72.15" viewBox="0 0 110.831 72.15"><g transform="translate(-140 -9.177)"><g transform="translate(171.366 9.177)"><path d="M153.573,32.965a11.578,11.578,0,1,1,14.775,0A24.054,24.054,0,0,1,179,39.955a24.05,24.05,0,1,0-36.08,0A24.073,24.073,0,0,1,153.573,32.965Z" transform="translate(-136.91 0)" fill="#d6001c"/><path d="M224.218,79.544a7.764,7.764,0,1,0-7.982,7.76l.218,0,.218,0A7.764,7.764,0,0,0,224.218,79.544Z" transform="translate(-192.404 -55.494)" fill="#d6001c"/><path d="M241.95,140.192c.073,0,.145,0,.218,0s.145,0,.218,0l-.218,0Z" transform="translate(-218.117 -108.382)" fill="#d6001c"/><path d="M191,157.01c-.073,0-.145,0-.218,0s-.145,0-.218,0A20.2,20.2,0,0,0,175.48,164a24.052,24.052,0,0,0,30.6,0A20.2,20.2,0,0,0,191,157.01Z" transform="translate(-166.729 -121.386)" fill="#d6001c"/><path d="M242.386,157l-.218,0-.218,0c.073,0,.145,0,.218,0S242.313,157,242.386,157Z" transform="translate(-218.117 -121.378)" fill="#d6001c"/></g><g transform="translate(140 65.795)"><g transform="translate(31.476 0.157)"><path d="M137.78,250.543h4.066l.147,1.484a5.264,5.264,0,0,1,1.65-1.284A5.129,5.129,0,0,1,146,250.23a5.732,5.732,0,0,1,1.475.172,4.742,4.742,0,0,1,1.99,1.041,4.724,4.724,0,0,1,.606.642,5.851,5.851,0,0,1,2.076-1.37,6.877,6.877,0,0,1,2.55-.486,5.369,5.369,0,0,1,4.052,1.454,5.479,5.479,0,0,1,1.4,3.964V265.6h-4.243v-9.182a2.81,2.81,0,0,0-.547-1.854,2.008,2.008,0,0,0-1.636-.656,2.51,2.51,0,0,0-1.974.828,3.059,3.059,0,0,0-.737,2.11V265.6h-4.1v-9.182a2.822,2.822,0,0,0-.545-1.854,2.011,2.011,0,0,0-1.636-.656,2.527,2.527,0,0,0-1.96.828,3.025,3.025,0,0,0-.751,2.11V265.6h-4.243Z" transform="translate(-137.78 -250.23)" fill="#d6001c"/></g><g transform="translate(56.988 0.157)"><path d="M249.45,250.543h4.066l.147,1.484a5.264,5.264,0,0,1,1.649-1.284,5.129,5.129,0,0,1,2.357-.513,5.733,5.733,0,0,1,1.475.172,4.743,4.743,0,0,1,1.99,1.041,4.725,4.725,0,0,1,.606.642,5.851,5.851,0,0,1,2.076-1.37,6.877,6.877,0,0,1,2.55-.486,5.369,5.369,0,0,1,4.052,1.454,5.479,5.479,0,0,1,1.4,3.964V265.6h-4.243v-9.182a2.81,2.81,0,0,0-.547-1.854,2.008,2.008,0,0,0-1.636-.656,2.51,2.51,0,0,0-1.974.828,3.048,3.048,0,0,0-.737,2.11V265.6h-4.1v-9.182a2.822,2.822,0,0,0-.545-1.854,2.011,2.011,0,0,0-1.636-.656,2.527,2.527,0,0,0-1.96.828,3.025,3.025,0,0,0-.751,2.11V265.6h-4.243Z" transform="translate(-249.45 -250.23)" fill="#d6001c"/></g><path d="M10.643,259.693a3.739,3.739,0,1,1,0-4.774,7.772,7.772,0,0,1,2.258-3.44,7.767,7.767,0,1,0,0,11.653A7.767,7.767,0,0,1,10.643,259.693Z" transform="translate(0 -249.54)" fill="#d6001c"/><path d="M66.834,249.55a7.764,7.764,0,1,0,7.764,7.764A7.764,7.764,0,0,0,66.834,249.55Zm0,11.5a3.739,3.739,0,1,1,3.739-3.739A3.743,3.743,0,0,1,66.834,261.053Z" transform="translate(-45.668 -249.548)" fill="#d6001c"/><path d="M368.951,259.693a3.739,3.739,0,1,1,0-4.774,7.772,7.772,0,0,1,2.258-3.44,7.764,7.764,0,1,0,0,11.649A7.733,7.733,0,0,1,368.951,259.693Z" transform="translate(-276.408 -249.54)" fill="#d6001c"/><path d="M425.134,249.55a7.764,7.764,0,1,0,7.764,7.764A7.764,7.764,0,0,0,425.134,249.55Zm0,11.5a3.739,3.739,0,1,1,3.739-3.739A3.743,3.743,0,0,1,425.134,261.053Z" transform="translate(-322.067 -249.548)" fill="#d6001c"/></g></g></svg>