<svg xmlns="http://www.w3.org/2000/svg" width="223.651" height="48.103" viewBox="0 0 223.651 48.103"><g transform="translate(-171.366 -9.177)"><g transform="translate(171.366 9.177)"><path d="M153.573,32.965a11.578,11.578,0,1,1,14.775,0A24.054,24.054,0,0,1,179,39.955a24.05,24.05,0,1,0-36.08,0A24.073,24.073,0,0,1,153.573,32.965Z" transform="translate(-136.91 0)" fill="#fff"/><path d="M224.218,79.544a7.764,7.764,0,1,0-7.982,7.76l.218,0,.218,0A7.764,7.764,0,0,0,224.218,79.544Z" transform="translate(-192.404 -55.494)" fill="#fff"/><path d="M241.95,140.192c.073,0,.145,0,.218,0s.145,0,.218,0l-.218,0Z" transform="translate(-218.117 -108.382)" fill="#fff"/><path d="M191,157.01c-.073,0-.145,0-.218,0s-.145,0-.218,0A20.2,20.2,0,0,0,175.48,164a24.052,24.052,0,0,0,30.6,0A20.2,20.2,0,0,0,191,157.01Z" transform="translate(-166.729 -121.386)" fill="#fff"/><path d="M242.386,157l-.218,0-.218,0c.073,0,.145,0,.218,0S242.313,157,242.386,157Z" transform="translate(-218.117 -121.378)" fill="#fff"/></g><g transform="translate(234 21.568)"><g transform="translate(45.729 0.227)"><path d="M137.78,250.685h5.907l.214,2.156a7.648,7.648,0,0,1,2.4-1.866,7.451,7.451,0,0,1,3.425-.745,8.329,8.329,0,0,1,2.143.251,6.89,6.89,0,0,1,2.891,1.513,6.863,6.863,0,0,1,.88.933,8.5,8.5,0,0,1,3.016-1.991,9.99,9.99,0,0,1,3.705-.705,7.8,7.8,0,0,1,5.887,2.113,7.961,7.961,0,0,1,2.034,5.759v14.464h-6.164v-13.34a4.082,4.082,0,0,0-.794-2.693,2.917,2.917,0,0,0-2.377-.953,3.647,3.647,0,0,0-2.868,1.2A4.444,4.444,0,0,0,157,259.849v12.717h-5.95v-13.34a4.1,4.1,0,0,0-.791-2.693,2.921,2.921,0,0,0-2.377-.953,3.671,3.671,0,0,0-2.848,1.2,4.4,4.4,0,0,0-1.091,3.066v12.717h-6.164Z" transform="translate(-137.78 -250.23)" fill="#fff"/></g><g transform="translate(82.793 0.227)"><path d="M249.45,250.685h5.907l.214,2.156a7.647,7.647,0,0,1,2.4-1.866,7.452,7.452,0,0,1,3.425-.745,8.329,8.329,0,0,1,2.143.251,6.891,6.891,0,0,1,2.891,1.513,6.86,6.86,0,0,1,.88.933,8.5,8.5,0,0,1,3.016-1.991,9.991,9.991,0,0,1,3.705-.705,7.8,7.8,0,0,1,5.887,2.113,7.961,7.961,0,0,1,2.034,5.759v14.464h-6.164v-13.34a4.082,4.082,0,0,0-.794-2.693,2.917,2.917,0,0,0-2.377-.953,3.647,3.647,0,0,0-2.868,1.2,4.429,4.429,0,0,0-1.071,3.066v12.717h-5.95v-13.34a4.1,4.1,0,0,0-.791-2.693,2.921,2.921,0,0,0-2.377-.953,3.671,3.671,0,0,0-2.848,1.2,4.4,4.4,0,0,0-1.091,3.066v12.717h-6.164Z" transform="translate(-249.45 -250.23)" fill="#fff"/></g><path d="M15.463,264.291a5.432,5.432,0,1,1,0-6.935,11.29,11.29,0,0,1,3.28-5,11.285,11.285,0,1,0,0,16.93A11.285,11.285,0,0,1,15.463,264.291Z" transform="translate(0 -249.54)" fill="#fff"/><path d="M70.35,249.55a11.28,11.28,0,1,0,11.28,11.28A11.28,11.28,0,0,0,70.35,249.55Zm0,16.712a5.432,5.432,0,1,1,5.432-5.432A5.437,5.437,0,0,1,70.35,266.262Z" transform="translate(-39.599 -249.547)" fill="#fff"/><path d="M373.77,264.291a5.432,5.432,0,1,1,0-6.935,11.291,11.291,0,0,1,3.28-5,11.28,11.28,0,1,0,0,16.923A11.234,11.234,0,0,1,373.77,264.291Z" transform="translate(-239.321 -249.54)" fill="#fff"/><path d="M428.65,249.55a11.28,11.28,0,1,0,11.28,11.28A11.28,11.28,0,0,0,428.65,249.55Zm0,16.712a5.432,5.432,0,1,1,5.432-5.432A5.437,5.437,0,0,1,428.65,266.262Z" transform="translate(-278.913 -249.547)" fill="#fff"/></g></g></svg>